<mxfile host="app.diagrams.net" modified="2022-09-08T14:00:48.585Z" agent="5.0 (Windows NT 10.0; Win64; x64) AppleWebKit/537.36 (KHTML, like Gecko) Chrome/104.0.0.0 Safari/537.36" etag="8k2fD8Vh1EQxLtEg-4T5" version="20.2.8" type="github">
  <diagram id="5Q9INnKn81z7STsdrhi8" name="第 1 页">
    <mxGraphModel dx="1038" dy="482" grid="1" gridSize="10" guides="1" tooltips="1" connect="1" arrows="1" fold="1" page="1" pageScale="1" pageWidth="2000" pageHeight="1169" math="0" shadow="0">
      <root>
        <mxCell id="0" />
        <mxCell id="1" parent="0" />
        <mxCell id="-gOKCJ8Xob2ZJ9NSNxOn-1" style="edgeStyle=orthogonalEdgeStyle;rounded=0;orthogonalLoop=1;jettySize=auto;html=1;exitX=1;exitY=0.5;exitDx=0;exitDy=0;entryX=0;entryY=0.5;entryDx=0;entryDy=0;fillColor=#fff2cc;strokeColor=#000000;fontFamily=Verdana;" parent="1" source="-gOKCJ8Xob2ZJ9NSNxOn-2" target="-gOKCJ8Xob2ZJ9NSNxOn-7" edge="1">
          <mxGeometry relative="1" as="geometry" />
        </mxCell>
        <mxCell id="-gOKCJ8Xob2ZJ9NSNxOn-93" style="edgeStyle=orthogonalEdgeStyle;curved=1;sketch=0;orthogonalLoop=1;jettySize=auto;html=1;exitX=0.5;exitY=1;exitDx=0;exitDy=0;shadow=0;endArrow=block;endFill=0;strokeWidth=1;dashed=1;dashPattern=1 2;fontFamily=Verdana;" parent="1" source="-gOKCJ8Xob2ZJ9NSNxOn-2" target="-gOKCJ8Xob2ZJ9NSNxOn-66" edge="1">
          <mxGeometry relative="1" as="geometry" />
        </mxCell>
        <mxCell id="-gOKCJ8Xob2ZJ9NSNxOn-2" value="F1" style="rounded=1;whiteSpace=wrap;html=1;shadow=0;sketch=0;glass=0;fillColor=#fff2cc;strokeColor=#d6b656;fontFamily=Verdana;" parent="1" vertex="1">
          <mxGeometry x="320" y="170" width="80" height="30" as="geometry" />
        </mxCell>
        <mxCell id="-gOKCJ8Xob2ZJ9NSNxOn-3" style="edgeStyle=orthogonalEdgeStyle;rounded=0;orthogonalLoop=1;jettySize=auto;html=1;exitX=1;exitY=0.5;exitDx=0;exitDy=0;entryX=0;entryY=0.5;entryDx=0;entryDy=0;fontFamily=Verdana;" parent="1" source="-gOKCJ8Xob2ZJ9NSNxOn-5" target="-gOKCJ8Xob2ZJ9NSNxOn-2" edge="1">
          <mxGeometry relative="1" as="geometry" />
        </mxCell>
        <mxCell id="-gOKCJ8Xob2ZJ9NSNxOn-5" value="Input" style="shape=hexagon;perimeter=hexagonPerimeter2;whiteSpace=wrap;html=1;fixedSize=1;fillColor=#dae8fc;strokeColor=#6c8ebf;fontFamily=Verdana;" parent="1" vertex="1">
          <mxGeometry x="200" y="165" width="80" height="40" as="geometry" />
        </mxCell>
        <mxCell id="-gOKCJ8Xob2ZJ9NSNxOn-62" style="edgeStyle=orthogonalEdgeStyle;curved=1;sketch=0;orthogonalLoop=1;jettySize=auto;html=1;exitX=0.75;exitY=0;exitDx=0;exitDy=0;entryX=0.25;entryY=0;entryDx=0;entryDy=0;shadow=0;dashed=1;strokeColor=#000000;fontFamily=Verdana;" parent="1" source="-gOKCJ8Xob2ZJ9NSNxOn-7" target="-gOKCJ8Xob2ZJ9NSNxOn-37" edge="1">
          <mxGeometry relative="1" as="geometry">
            <Array as="points">
              <mxPoint x="470" y="150" />
              <mxPoint x="490" y="150" />
            </Array>
          </mxGeometry>
        </mxCell>
        <mxCell id="-gOKCJ8Xob2ZJ9NSNxOn-91" style="edgeStyle=orthogonalEdgeStyle;curved=1;sketch=0;orthogonalLoop=1;jettySize=auto;html=1;exitX=0.25;exitY=0;exitDx=0;exitDy=0;entryX=0.25;entryY=0;entryDx=0;entryDy=0;shadow=0;endArrow=classic;endFill=1;endSize=6;strokeColor=#000000;strokeWidth=1;fontFamily=Verdana;" parent="1" source="-gOKCJ8Xob2ZJ9NSNxOn-7" target="-gOKCJ8Xob2ZJ9NSNxOn-8" edge="1">
          <mxGeometry relative="1" as="geometry">
            <Array as="points">
              <mxPoint x="450" y="140" />
              <mxPoint x="580" y="140" />
            </Array>
          </mxGeometry>
        </mxCell>
        <mxCell id="-gOKCJ8Xob2ZJ9NSNxOn-97" style="edgeStyle=orthogonalEdgeStyle;curved=1;sketch=0;orthogonalLoop=1;jettySize=auto;html=1;exitX=0.5;exitY=1;exitDx=0;exitDy=0;entryX=0.5;entryY=0;entryDx=0;entryDy=0;shadow=0;endArrow=block;endFill=0;strokeColor=#000000;strokeWidth=1;dashed=1;dashPattern=1 2;fontFamily=Verdana;" parent="1" source="-gOKCJ8Xob2ZJ9NSNxOn-7" target="-gOKCJ8Xob2ZJ9NSNxOn-67" edge="1">
          <mxGeometry relative="1" as="geometry" />
        </mxCell>
        <mxCell id="-gOKCJ8Xob2ZJ9NSNxOn-7" value="F2" style="rounded=1;whiteSpace=wrap;html=1;shadow=0;sketch=0;glass=0;fillColor=#fff2cc;strokeColor=#d6b656;gradientColor=none;gradientDirection=east;fontFamily=Verdana;" parent="1" vertex="1">
          <mxGeometry x="440" y="170" width="40" height="30" as="geometry" />
        </mxCell>
        <mxCell id="-gOKCJ8Xob2ZJ9NSNxOn-92" style="edgeStyle=orthogonalEdgeStyle;curved=1;sketch=0;orthogonalLoop=1;jettySize=auto;html=1;exitX=0.75;exitY=0;exitDx=0;exitDy=0;entryX=0.75;entryY=0;entryDx=0;entryDy=0;shadow=0;endArrow=classic;endFill=1;endSize=6;strokeColor=#000000;strokeWidth=1;fontFamily=Verdana;" parent="1" source="-gOKCJ8Xob2ZJ9NSNxOn-8" target="-gOKCJ8Xob2ZJ9NSNxOn-27" edge="1">
          <mxGeometry relative="1" as="geometry">
            <Array as="points">
              <mxPoint x="620" y="140" />
              <mxPoint x="750" y="140" />
            </Array>
          </mxGeometry>
        </mxCell>
        <mxCell id="-gOKCJ8Xob2ZJ9NSNxOn-100" style="edgeStyle=orthogonalEdgeStyle;curved=1;sketch=0;orthogonalLoop=1;jettySize=auto;html=1;exitX=0.5;exitY=1;exitDx=0;exitDy=0;entryX=0.5;entryY=0;entryDx=0;entryDy=0;shadow=0;endArrow=block;endFill=0;strokeColor=#000000;strokeWidth=1;dashed=1;dashPattern=1 2;fontFamily=Verdana;" parent="1" source="-gOKCJ8Xob2ZJ9NSNxOn-8" target="-gOKCJ8Xob2ZJ9NSNxOn-69" edge="1">
          <mxGeometry relative="1" as="geometry" />
        </mxCell>
        <mxCell id="-gOKCJ8Xob2ZJ9NSNxOn-8" value="F3" style="rounded=1;whiteSpace=wrap;html=1;shadow=0;sketch=0;glass=0;fillColor=#f8cecc;strokeColor=#b85450;fontFamily=Verdana;" parent="1" vertex="1">
          <mxGeometry x="560" y="170" width="80" height="30" as="geometry" />
        </mxCell>
        <mxCell id="-gOKCJ8Xob2ZJ9NSNxOn-30" style="edgeStyle=orthogonalEdgeStyle;rounded=0;orthogonalLoop=1;jettySize=auto;html=1;exitX=1;exitY=0.5;exitDx=0;exitDy=0;strokeColor=#000000;fontFamily=Verdana;" parent="1" source="-gOKCJ8Xob2ZJ9NSNxOn-27" target="-gOKCJ8Xob2ZJ9NSNxOn-28" edge="1">
          <mxGeometry relative="1" as="geometry" />
        </mxCell>
        <mxCell id="-gOKCJ8Xob2ZJ9NSNxOn-102" style="edgeStyle=orthogonalEdgeStyle;curved=1;sketch=0;orthogonalLoop=1;jettySize=auto;html=1;exitX=0.5;exitY=1;exitDx=0;exitDy=0;entryX=0.5;entryY=0;entryDx=0;entryDy=0;shadow=0;endArrow=block;endFill=0;strokeColor=#000000;strokeWidth=1;dashed=1;dashPattern=1 2;fontFamily=Verdana;" parent="1" source="-gOKCJ8Xob2ZJ9NSNxOn-27" target="-gOKCJ8Xob2ZJ9NSNxOn-64" edge="1">
          <mxGeometry relative="1" as="geometry" />
        </mxCell>
        <mxCell id="-gOKCJ8Xob2ZJ9NSNxOn-27" value="F4" style="rounded=1;whiteSpace=wrap;html=1;shadow=0;sketch=0;glass=0;fillColor=#fff2cc;strokeColor=#d6b656;fontFamily=Verdana;" parent="1" vertex="1">
          <mxGeometry x="720" y="170" width="40" height="30" as="geometry" />
        </mxCell>
        <mxCell id="-gOKCJ8Xob2ZJ9NSNxOn-70" style="edgeStyle=orthogonalEdgeStyle;curved=1;sketch=0;orthogonalLoop=1;jettySize=auto;html=1;exitX=1;exitY=0.5;exitDx=0;exitDy=0;entryX=1;entryY=0.5;entryDx=0;entryDy=0;shadow=0;strokeColor=#000000;fontFamily=Verdana;" parent="1" source="-gOKCJ8Xob2ZJ9NSNxOn-28" target="-gOKCJ8Xob2ZJ9NSNxOn-63" edge="1">
          <mxGeometry relative="1" as="geometry">
            <Array as="points">
              <mxPoint x="910" y="185" />
              <mxPoint x="910" y="295" />
            </Array>
          </mxGeometry>
        </mxCell>
        <mxCell id="-gOKCJ8Xob2ZJ9NSNxOn-103" style="edgeStyle=orthogonalEdgeStyle;curved=1;sketch=0;orthogonalLoop=1;jettySize=auto;html=1;exitX=0.5;exitY=1;exitDx=0;exitDy=0;entryX=0.5;entryY=0;entryDx=0;entryDy=0;shadow=0;endArrow=block;endFill=0;strokeColor=#000000;strokeWidth=1;dashed=1;dashPattern=1 2;fontFamily=Verdana;" parent="1" source="-gOKCJ8Xob2ZJ9NSNxOn-28" target="-gOKCJ8Xob2ZJ9NSNxOn-63" edge="1">
          <mxGeometry relative="1" as="geometry" />
        </mxCell>
        <mxCell id="-gOKCJ8Xob2ZJ9NSNxOn-28" value="F5" style="rounded=1;whiteSpace=wrap;html=1;shadow=0;sketch=0;glass=0;fillColor=#fff2cc;strokeColor=#d6b656;fontFamily=Verdana;" parent="1" vertex="1">
          <mxGeometry x="800" y="170" width="80" height="30" as="geometry" />
        </mxCell>
        <mxCell id="-gOKCJ8Xob2ZJ9NSNxOn-61" style="edgeStyle=orthogonalEdgeStyle;curved=1;sketch=0;orthogonalLoop=1;jettySize=auto;html=1;exitX=0.5;exitY=0;exitDx=0;exitDy=0;entryX=0.5;entryY=0;entryDx=0;entryDy=0;shadow=0;dashed=1;strokeColor=#000000;fontFamily=Verdana;" parent="1" source="-gOKCJ8Xob2ZJ9NSNxOn-37" target="-gOKCJ8Xob2ZJ9NSNxOn-42" edge="1">
          <mxGeometry relative="1" as="geometry">
            <Array as="points">
              <mxPoint x="500" y="130" />
              <mxPoint x="700" y="130" />
            </Array>
          </mxGeometry>
        </mxCell>
        <mxCell id="-gOKCJ8Xob2ZJ9NSNxOn-99" style="edgeStyle=orthogonalEdgeStyle;curved=1;sketch=0;orthogonalLoop=1;jettySize=auto;html=1;exitX=0.5;exitY=1;exitDx=0;exitDy=0;entryX=0.5;entryY=0;entryDx=0;entryDy=0;shadow=0;endArrow=block;endFill=0;strokeColor=#000000;strokeWidth=1;dashed=1;dashPattern=1 2;fontFamily=Verdana;" parent="1" source="-gOKCJ8Xob2ZJ9NSNxOn-37" target="-gOKCJ8Xob2ZJ9NSNxOn-68" edge="1">
          <mxGeometry relative="1" as="geometry" />
        </mxCell>
        <mxCell id="-gOKCJ8Xob2ZJ9NSNxOn-37" value="FR2" style="rounded=1;whiteSpace=wrap;html=1;shadow=0;sketch=0;glass=0;fillColor=#f5f5f5;strokeColor=#666666;gradientDirection=east;fontColor=#333333;fontFamily=Verdana;" parent="1" vertex="1">
          <mxGeometry x="480" y="170" width="40" height="30" as="geometry" />
        </mxCell>
        <mxCell id="-gOKCJ8Xob2ZJ9NSNxOn-60" style="edgeStyle=orthogonalEdgeStyle;curved=1;sketch=0;orthogonalLoop=1;jettySize=auto;html=1;exitX=0.75;exitY=0;exitDx=0;exitDy=0;entryX=0.25;entryY=0;entryDx=0;entryDy=0;shadow=0;dashed=1;strokeColor=#000000;fontFamily=Verdana;" parent="1" source="-gOKCJ8Xob2ZJ9NSNxOn-42" target="-gOKCJ8Xob2ZJ9NSNxOn-27" edge="1">
          <mxGeometry relative="1" as="geometry">
            <Array as="points">
              <mxPoint x="710" y="150" />
              <mxPoint x="730" y="150" />
            </Array>
          </mxGeometry>
        </mxCell>
        <mxCell id="-gOKCJ8Xob2ZJ9NSNxOn-101" style="edgeStyle=orthogonalEdgeStyle;curved=1;sketch=0;orthogonalLoop=1;jettySize=auto;html=1;exitX=0.5;exitY=1;exitDx=0;exitDy=0;entryX=0.5;entryY=0;entryDx=0;entryDy=0;shadow=0;endArrow=block;endFill=0;strokeColor=#000000;strokeWidth=1;dashed=1;dashPattern=1 2;fontFamily=Verdana;" parent="1" source="-gOKCJ8Xob2ZJ9NSNxOn-42" target="-gOKCJ8Xob2ZJ9NSNxOn-65" edge="1">
          <mxGeometry relative="1" as="geometry" />
        </mxCell>
        <mxCell id="-gOKCJ8Xob2ZJ9NSNxOn-42" value="FR4" style="rounded=1;whiteSpace=wrap;html=1;shadow=0;sketch=0;glass=0;fillColor=#f5f5f5;strokeColor=#666666;gradientDirection=east;fontColor=#333333;fontFamily=Verdana;" parent="1" vertex="1">
          <mxGeometry x="680" y="170" width="40" height="30" as="geometry" />
        </mxCell>
        <mxCell id="-gOKCJ8Xob2ZJ9NSNxOn-71" style="edgeStyle=orthogonalEdgeStyle;curved=1;sketch=0;orthogonalLoop=1;jettySize=auto;html=1;exitX=0;exitY=0.5;exitDx=0;exitDy=0;shadow=0;strokeColor=#000000;fontFamily=Verdana;" parent="1" source="-gOKCJ8Xob2ZJ9NSNxOn-63" target="-gOKCJ8Xob2ZJ9NSNxOn-64" edge="1">
          <mxGeometry relative="1" as="geometry" />
        </mxCell>
        <mxCell id="-gOKCJ8Xob2ZJ9NSNxOn-63" value="B5" style="rounded=1;whiteSpace=wrap;html=1;shadow=0;sketch=0;glass=0;fillColor=#fff2cc;strokeColor=#d6b656;fontFamily=Verdana;" parent="1" vertex="1">
          <mxGeometry x="800" y="280" width="80" height="30" as="geometry" />
        </mxCell>
        <mxCell id="1ccpoqErQCg6hdIHsMPf-4" style="edgeStyle=orthogonalEdgeStyle;curved=1;rounded=0;orthogonalLoop=1;jettySize=auto;html=1;exitX=0.75;exitY=1;exitDx=0;exitDy=0;entryX=0.75;entryY=1;entryDx=0;entryDy=0;fontFamily=Verdana;" parent="1" source="-gOKCJ8Xob2ZJ9NSNxOn-64" target="-gOKCJ8Xob2ZJ9NSNxOn-69" edge="1">
          <mxGeometry relative="1" as="geometry">
            <Array as="points">
              <mxPoint x="750" y="340" />
              <mxPoint x="620" y="340" />
            </Array>
          </mxGeometry>
        </mxCell>
        <mxCell id="1ccpoqErQCg6hdIHsMPf-7" style="edgeStyle=orthogonalEdgeStyle;curved=1;rounded=0;orthogonalLoop=1;jettySize=auto;html=1;exitX=0.25;exitY=1;exitDx=0;exitDy=0;entryX=0.75;entryY=1;entryDx=0;entryDy=0;dashed=1;fontFamily=Verdana;" parent="1" source="-gOKCJ8Xob2ZJ9NSNxOn-64" target="-gOKCJ8Xob2ZJ9NSNxOn-65" edge="1">
          <mxGeometry relative="1" as="geometry">
            <Array as="points">
              <mxPoint x="730" y="330" />
              <mxPoint x="710" y="330" />
            </Array>
          </mxGeometry>
        </mxCell>
        <mxCell id="-gOKCJ8Xob2ZJ9NSNxOn-64" value="B4" style="rounded=1;whiteSpace=wrap;html=1;shadow=0;sketch=0;glass=0;fillColor=#fff2cc;strokeColor=#d6b656;fontFamily=Verdana;" parent="1" vertex="1">
          <mxGeometry x="720" y="280" width="40" height="30" as="geometry" />
        </mxCell>
        <mxCell id="1ccpoqErQCg6hdIHsMPf-5" style="edgeStyle=orthogonalEdgeStyle;curved=1;rounded=0;orthogonalLoop=1;jettySize=auto;html=1;exitX=0.5;exitY=1;exitDx=0;exitDy=0;entryX=0.5;entryY=1;entryDx=0;entryDy=0;dashed=1;fontFamily=Verdana;" parent="1" source="-gOKCJ8Xob2ZJ9NSNxOn-65" target="-gOKCJ8Xob2ZJ9NSNxOn-68" edge="1">
          <mxGeometry relative="1" as="geometry">
            <Array as="points">
              <mxPoint x="700" y="360" />
              <mxPoint x="500" y="360" />
            </Array>
          </mxGeometry>
        </mxCell>
        <mxCell id="-gOKCJ8Xob2ZJ9NSNxOn-65" value="BR4" style="rounded=1;whiteSpace=wrap;html=1;shadow=0;sketch=0;glass=0;fillColor=#f5f5f5;strokeColor=#666666;gradientDirection=east;fontColor=#333333;fontFamily=Verdana;" parent="1" vertex="1">
          <mxGeometry x="680" y="280" width="40" height="30" as="geometry" />
        </mxCell>
        <mxCell id="-gOKCJ8Xob2ZJ9NSNxOn-66" value="B1" style="rounded=1;whiteSpace=wrap;html=1;shadow=0;sketch=0;glass=0;fillColor=#fff2cc;strokeColor=#d6b656;fontFamily=Verdana;" parent="1" vertex="1">
          <mxGeometry x="320" y="280" width="80" height="30" as="geometry" />
        </mxCell>
        <mxCell id="-gOKCJ8Xob2ZJ9NSNxOn-73" style="edgeStyle=orthogonalEdgeStyle;curved=1;sketch=0;orthogonalLoop=1;jettySize=auto;html=1;exitX=0;exitY=0.5;exitDx=0;exitDy=0;entryX=1;entryY=0.5;entryDx=0;entryDy=0;shadow=0;strokeColor=#000000;fontFamily=Verdana;" parent="1" source="-gOKCJ8Xob2ZJ9NSNxOn-67" target="-gOKCJ8Xob2ZJ9NSNxOn-66" edge="1">
          <mxGeometry relative="1" as="geometry" />
        </mxCell>
        <mxCell id="-gOKCJ8Xob2ZJ9NSNxOn-67" value="B2" style="rounded=1;whiteSpace=wrap;html=1;shadow=0;sketch=0;glass=0;fillColor=#fff2cc;strokeColor=#d6b656;gradientColor=none;gradientDirection=east;fontFamily=Verdana;" parent="1" vertex="1">
          <mxGeometry x="440" y="280" width="40" height="30" as="geometry" />
        </mxCell>
        <mxCell id="1ccpoqErQCg6hdIHsMPf-9" style="edgeStyle=orthogonalEdgeStyle;curved=1;rounded=0;orthogonalLoop=1;jettySize=auto;html=1;exitX=0.25;exitY=1;exitDx=0;exitDy=0;entryX=0.75;entryY=1;entryDx=0;entryDy=0;dashed=1;fontFamily=Verdana;" parent="1" source="-gOKCJ8Xob2ZJ9NSNxOn-68" target="-gOKCJ8Xob2ZJ9NSNxOn-67" edge="1">
          <mxGeometry relative="1" as="geometry">
            <Array as="points">
              <mxPoint x="490" y="330" />
              <mxPoint x="470" y="330" />
            </Array>
          </mxGeometry>
        </mxCell>
        <mxCell id="-gOKCJ8Xob2ZJ9NSNxOn-68" value="BR2" style="rounded=1;whiteSpace=wrap;html=1;shadow=0;sketch=0;glass=0;fillColor=#f5f5f5;strokeColor=#666666;gradientDirection=east;fontColor=#333333;fontFamily=Verdana;" parent="1" vertex="1">
          <mxGeometry x="480" y="280" width="40" height="30" as="geometry" />
        </mxCell>
        <mxCell id="1ccpoqErQCg6hdIHsMPf-3" style="edgeStyle=orthogonalEdgeStyle;curved=1;rounded=0;orthogonalLoop=1;jettySize=auto;html=1;exitX=0.25;exitY=1;exitDx=0;exitDy=0;entryX=0.25;entryY=1;entryDx=0;entryDy=0;fontFamily=Verdana;" parent="1" source="-gOKCJ8Xob2ZJ9NSNxOn-69" target="-gOKCJ8Xob2ZJ9NSNxOn-67" edge="1">
          <mxGeometry relative="1" as="geometry">
            <Array as="points">
              <mxPoint x="580" y="340" />
              <mxPoint x="450" y="340" />
            </Array>
          </mxGeometry>
        </mxCell>
        <mxCell id="-gOKCJ8Xob2ZJ9NSNxOn-69" value="B3" style="rounded=1;whiteSpace=wrap;html=1;shadow=0;sketch=0;glass=0;fillColor=#f8cecc;strokeColor=#b85450;fontFamily=Verdana;" parent="1" vertex="1">
          <mxGeometry x="560" y="280" width="80" height="30" as="geometry" />
        </mxCell>
      </root>
    </mxGraphModel>
  </diagram>
</mxfile>
